<svg width="20" height="20" viewBox="0 0 0.4 0.4" xmlns="http://www.w3.org/2000/svg"><path fill-rule="evenodd" clip-rule="evenodd" d="M0.199 0A0.199 0.199 0 0 0 0 0.199c0 0.088 0.057 0.163 0.136 0.19 0.01 0.001 0.013 -0.005 0.013 -0.01v-0.034c-0.055 0.012 -0.067 -0.027 -0.067 -0.027 -0.009 -0.023 -0.022 -0.029 -0.022 -0.029 -0.018 -0.012 0.001 -0.012 0.001 -0.012 0.02 0.001 0.031 0.021 0.031 0.021 0.018 0.031 0.046 0.022 0.057 0.017 0.001 -0.013 0.007 -0.022 0.012 -0.027 -0.044 -0.005 -0.091 -0.022 -0.091 -0.099 0 -0.022 0.007 -0.039 0.021 -0.054 -0.001 -0.004 -0.009 -0.024 0.002 -0.051 0 0 0.017 -0.005 0.055 0.021 0.016 -0.005 0.033 -0.006 0.05 -0.006s0.034 0.002 0.05 0.006c0.038 -0.026 0.055 -0.021 0.055 -0.021 0.011 0.027 0.004 0.048 0.002 0.053a0.079 0.079 0 0 1 0.021 0.054c0 0.077 -0.047 0.093 -0.091 0.098 0.007 0.006 0.013 0.018 0.013 0.037v0.055c0 0.005 0.004 0.011 0.013 0.01A0.2 0.2 0 0 0 0.4 0.199C0.399 0.089 0.31 0 0.199 0"/></svg>