<svg xmlns="http://www.w3.org/2000/svg" viewBox="-5.586 5.664 20 20" xml:space="preserve" width="20" height="20"><path d="M4.414 5.664c-5.523 0 -10 4.477 -10 10s4.477 10 10 10 10 -4.477 10 -10 -4.477 -10 -10 -10m6.242 16.238c-0.813 0.813 -1.754 1.449 -2.805 1.891 -1.086 0.461 -2.242 0.691 -3.438 0.691 -1.191 0 -2.348 -0.234 -3.438 -0.691 -1.051 -0.445 -1.996 -1.082 -2.805 -1.891 -0.813 -0.813 -1.449 -1.754 -1.891 -2.805C-4.18 18.012 -4.414 16.855 -4.414 15.664s0.234 -2.348 0.691 -3.438c0.445 -1.051 1.082 -1.996 1.891 -2.805 0.816 -0.813 1.758 -1.449 2.809 -1.895C2.066 7.07 3.223 6.836 4.414 6.836s2.348 0.234 3.438 0.691c1.051 0.445 1.996 1.082 2.805 1.891 0.813 0.813 1.449 1.754 1.891 2.805 0.461 1.086 0.691 2.242 0.691 3.438 0 1.191 -0.234 2.348 -0.691 3.438 -0.445 1.051 -1.082 1.996 -1.891 2.805"/><path d="M-0.332 13.609h1.949v6.238H-0.332zM0.602 10.664c-0.719 0 -1.191 0.465 -1.191 1.082 0 0.605 0.457 1.082 1.164 1.082h0.016c0.734 0 1.191 -0.48 1.188 -1.082 -0.016 -0.617 -0.457 -1.082 -1.176 -1.082m6.34 2.887c-1.117 0 -1.816 0.609 -1.945 1.039v-0.98H2.805c0.027 0.52 0 6.238 0 6.238h2.191v-3.371c0 -0.191 -0.008 -0.379 0.047 -0.512 0.148 -0.375 0.473 -0.766 1.055 -0.766 0.762 0 1.105 0.578 1.105 1.422v3.227H9.414v-3.469c0 -1.93 -1.086 -2.828 -2.473 -2.828"/></svg>